<svg xmlns="http://www.w3.org/2000/svg" width="310" height="310"><defs id="SvgjsDefs1098" /><g id="SvgjsG1099" fill="#061434" transform="none" featurekey="root" /><g id="SvgjsG1100" fill="#ffffff" transform="matrix(2.7, 0, 0, 2.7, 20, 20)" featurekey="container1"><circle cx="50" cy="50" r="50" /></g><g id="SvgjsG1101" fill="#061434" transform="matrix(1.12942, 0, 0, 1.12942, 98.5071, 53.541)" featurekey="symbol1"><g transform="translate(0 -952.362)"><path style="font-size:medium;font-style:normal;font-variant:normal;font-weight:normal;font-stretch:normal;text-indent:0;text-align:start;text-decoration:none;line-height:normal;letter-spacing:normal;word-spacing:normal;text-transform:none;direction:ltr;block-progression:tb;writing-mode:lr-tb;text-anchor:start;baseline-shift:baseline;opacity:1;color:;fill:#061434;fill-opacity:1;stroke:none;stroke-width:4;marker:none;visibility:visible;display:inline;overflow:visible;enable-background:accumulate;font-family:Sans;-inkscape-font-specification:Sans" transform="translate(0 952.362)" d="M 48.5625 19 C 48.0093 18.9992 47.4586 19.004 46.9063 19.0313 A 2.0002 2.0002 0 0 0 46.6875 19.0313 A 2.01029 2.01029 0 1 0 47.0938 23.0313 C 54.8491 22.6482 62.7268 25.4143 68.6563 31.3438 C 74.5857 37.2731 77.3518 45.1196 76.9688 52.875 A 2.00299 2.00299 0 1 0 80.9688 53.0938 C 81.4053 44.2553 78.2437 35.2436 71.5 28.5 C 65.1778 22.1778 56.8598 19.0123 48.5625 19 Z M 28.2188 27 A 2.0002 2.0002 0 0 0 27 27.5625 L 22.9688 31.625 C 17.717 36.8767 17.717 45.4357 22.9688 50.6875 L 49.3125 77.0313 C 54.5642 82.2831 63.1232 82.2831 68.375 77.0313 L 72.4063 72.9688 A 2.0002 2.0002 0 0 0 72.375 70.125 L 60.375 58.5625 A 2.0002 2.0002 0 0 0 57.5938 58.5625 L 53 63.1563 L 41.4063 51.5625 A 2.0002 2.0002 0 1 0 38.5938 54.4063 L 51.5938 67.4063 A 2.0002 2.0002 0 0 0 54.4063 67.4063 L 59.0313 62.7813 L 68.1563 71.5938 L 65.5313 74.2188 C 61.7975 77.9523 55.8587 77.9523 52.125 74.2188 L 25.7813 47.8438 C 22.0475 44.1099 22.0475 38.2024 25.7813 34.4688 L 28.4063 31.8438 L 37.1875 40.9688 L 32.5938 45.5625 A 2.0002 2.0002 0 1 0 35.4063 48.4063 L 41.4063 42.4063 A 2.0002 2.0002 0 0 0 41.4375 39.5938 L 29.875 27.5938 A 2.0002 2.0002 0 0 0 28.2188 27 Z M 47.75 27 A 2.00609 2.00609 0 1 0 48.0625 31 C 53.4757 30.8599 58.8919 32.8294 63.0313 36.9688 C 67.1577 41.0951 69.1306 46.5358 69 51.9375 A 2.00055 2.00055 0 1 0 73 52.0313 C 73.156 45.581 70.7622 39.0434 65.8438 34.125 C 60.9188 29.2001 54.4012 26.8327 47.9375 27 A 2.0002 2.0002 0 0 0 47.75 27 Z M 50.3438 35 C 49.8064 35.0043 49.2838 35.027 48.75 35.0938 A 2.0002 2.0002 0 1 0 49.25 39.0625 C 52.3438 38.6752 55.555 39.6487 57.9375 42.0313 C 60.3199 44.4136 61.2936 47.6561 60.9063 50.75 A 2.0002 2.0002 0 1 0 64.875 51.25 C 65.4096 46.9799 64.0529 42.4903 60.7813 39.2188 C 58.3275 36.765 55.1827 35.3785 51.9688 35.0625 C 51.4331 35.0098 50.8811 34.9957 50.3438 35 Z" /></g></g><g id="SvgjsG1102" fill="#061434" transform="matrix(4.37956, 0, 0, 4.37956, 84, 146.883)" featurekey="text1"><path d="M 3.04 12.88 q 0.5 0.4 0.99 0.83 t 0.88 0.94 t 0.63 1.14 t 0.24 1.43 q 0 0.6 -0.23 1.13 t -0.62 0.92 t -0.91 0.62 t -1.12 0.23 t -1.13 -0.23 t -0.92 -0.62 t -0.62 -0.92 t -0.23 -1.13 l 0.66 0 q 0 0.46 0.18 0.87 t 0.48 0.71 t 0.71 0.48 t 0.87 0.18 t 0.86 -0.18 t 0.7 -0.48 t 0.48 -0.71 t 0.18 -0.87 q 0 -0.68 -0.21 -1.22 t -0.56 -0.99 t -0.8 -0.84 t -0.93 -0.77 t -0.95 -0.79 t -0.84 -0.89 t -0.6 -1.06 t -0.23 -1.34 q 0 -0.6 0.23 -1.13 t 0.62 -0.92 t 0.92 -0.62 t 1.13 -0.23 t 1.12 0.23 t 0.91 0.62 t 0.62 0.92 t 0.23 1.13 l -0.66 0 q 0 -0.46 -0.18 -0.86 t -0.48 -0.7 t -0.7 -0.48 t -0.86 -0.18 t -0.87 0.18 t -0.71 0.48 t -0.48 0.7 t -0.18 0.86 q 0 0.64 0.2 1.13 t 0.53 0.91 t 0.76 0.79 t 0.89 0.73 Z M 12.54 10.16 l 0 4.92 l 0 2.36 l 0 2.58 l -0.66 0 l 0 -0.82 q -0.38 0.42 -0.9 0.67 t -1.12 0.25 q -0.56 0 -1.05 -0.21 t -0.85 -0.57 t -0.57 -0.85 t -0.21 -1.05 l 0 -2.36 l 0 -4.92 l 0.66 0 l 0 4.92 l 0 2.36 q 0 0.42 0.16 0.79 t 0.43 0.64 t 0.64 0.43 t 0.79 0.16 t 0.79 -0.16 t 0.64 -0.43 t 0.43 -0.64 t 0.16 -0.79 l 0 -2.36 l 0 -4.92 l 0.66 0 Z M 16.62 10.06 q 0.56 0 1.05 0.21 t 0.85 0.57 t 0.57 0.85 t 0.21 1.05 l 0 2.34 l 0 4.94 l -0.66 0 l 0 -4.94 l 0 -2.34 q 0 -0.42 -0.16 -0.79 t -0.43 -0.64 t -0.64 -0.43 t -0.79 -0.16 t -0.79 0.16 t -0.64 0.43 t -0.43 0.64 t -0.16 0.79 l 0 2.34 l 0 4.94 l -0.66 0 l 0 -4.94 l 0 -2.34 l 0 -2.58 l 0.66 0 l 0 0.82 q 0.38 -0.44 0.9 -0.68 t 1.12 -0.24 Z M 23.54 10.06 q 0.56 0 1.02 0.21 t 0.79 0.57 t 0.52 0.85 t 0.19 1.05 l 0 2.34 l 0 2.36 l 0 2.58 l -0.66 0 l 0 -0.82 q -0.38 0.42 -0.9 0.67 t -1.12 0.25 q -0.56 0 -1.05 -0.21 t -0.85 -0.57 t -0.57 -0.85 t -0.21 -1.05 l 0 -0.56 q 0 -1.24 1.52 -1.8 q 0.18 -0.08 0.61 -0.24 t 0.92 -0.35 t 0.95 -0.36 t 0.7 -0.27 l 0 -1.12 q 0 -0.84 -0.51 -1.43 t -1.35 -0.59 q -0.42 0 -0.78 0.16 t -0.64 0.43 t -0.44 0.64 t -0.16 0.79 l -0.66 0 q 0 -0.56 0.21 -1.05 t 0.57 -0.85 t 0.85 -0.57 t 1.05 -0.21 Z M 25.4 15.08 l 0 -0.5 q -0.3 0.12 -0.74 0.28 t -0.88 0.33 t -0.8 0.31 t -0.52 0.2 q -0.38 0.14 -0.74 0.42 t -0.36 0.76 l 0 0.56 q 0 0.42 0.16 0.79 t 0.43 0.64 t 0.64 0.43 t 0.79 0.16 t 0.79 -0.16 t 0.64 -0.43 t 0.43 -0.64 t 0.16 -0.79 l 0 -2.36 Z M 28.12 15.08 l 0 2.36 q 0 0.42 0.14 0.79 t 0.38 0.64 t 0.56 0.43 t 0.68 0.16 l 0 0.66 q -0.5 0 -0.94 -0.21 t -0.77 -0.57 t -0.52 -0.85 t -0.19 -1.05 l 0 -2.36 l 0 -4.26 l 0 -0.66 l 0 -2.8 l 0.66 0 l 0 2.8 l 2.16 0 l 0 0.66 l -2.16 0 l 0 4.26 Z M 31.94 10 l 0.68 0 l 0 0.68 l 0 9.2 l -0.68 0 l 0 -9.2 l -0.66 0 l 0 -0.68 l 0.66 0 Z M 32.12 7.72 q -0.22 0 -0.36 -0.14 t -0.14 -0.36 t 0.14 -0.36 t 0.36 -0.14 q 0.2 0 0.35 0.14 t 0.15 0.36 t -0.15 0.36 t -0.35 0.14 Z" /></g></svg>